<?xml version="1.0" encoding="utf-8"?>
<!-- Generator: Adobe Illustrator 18.1.1, SVG Export Plug-In . SVG Version: 6.00 Build 0)  -->
<svg version="1.1" id="Layer_1" xmlns="http://www.w3.org/2000/svg" xmlns:xlink="http://www.w3.org/1999/xlink" x="0px" y="0px"
	 viewBox="0 0 1000 1000" enable-background="new 0 0 1000 1000" xml:space="preserve">
<g>
	<path fill="#FFFFFF" d="M982.2,563.4c-0.7,0.4-0.5,1.2-0.7,1.9c-2,7.2-9.5,13.6-16.8,14.3c-8.1,0.8-15.6-3.3-19.2-10.5
		c-3.9-7.7-2-17.3,4.5-23.1c6.4-5.7,15.4-6.4,22.8-1.6c4.9,3.1,8.1,7.4,9.1,13.2c0,0.2,0.2,0.3,0.3,0.4c0,0.1,0,0.3,0,0.4
		c-0.3,1.4-0.3,2.8,0,4.2C982.2,562.9,982.2,563.2,982.2,563.4z"/>
	<path fill="#FFFFFF" d="M23.6,774.8c-1.7,0-3.4,0-5,0c-0.7,0-0.8-0.1-0.8-0.8c0.1-1.7,0-3.4,0-5c0.2-0.1,0.3-0.1,0.5,0
		c1,2.6,2.8,4.3,5.3,5.3C23.7,774.5,23.7,774.7,23.6,774.8z"/>
	<path fill="#FFFFFF" d="M982.2,562.7c-0.6-1.4-0.6-2.8,0-4.2C982.2,559.8,982.2,561.2,982.2,562.7z"/>
	<path fill="#FFFFFF" d="M660.5,178.8c-1.3,0.6-2.6,0.6-3.9,0C657.9,178.8,659.2,178.8,660.5,178.8z"/>
	<path fill="#FFFFFF" d="M23.6,774.8c0-0.1,0-0.2,0-0.3c0.9-0.8,1.9-0.8,2.8,0c0,0.1,0,0.2,0,0.3C25.4,774.8,24.5,774.8,23.6,774.8z
		"/>
	<path fill="#FFFFFF" d="M18.1,769.1l-0.2,0l-0.2-0.1c0-0.8,0-1.5,0-2.3c0.1-0.1,0.2-0.2,0.3,0C18.9,767.5,18.9,768.3,18.1,769.1z"
		/>
	<path fill="#FFFFFF" d="M18.1,769.1c0-0.8,0-1.6,0-2.4c0.4-2,1.4-3.5,3.1-4.7c27.7-17.7,50.7-40.6,71.3-66
		c19.9-24.5,37.2-50.9,53.4-78c25.3-42.5,47-86.9,66.7-132.3c20.8-47.9,39.2-96.8,56.2-146.1c3.8-11,7.4-22.1,10.8-33.3
		c0.2-0.5,0.4-0.9,0.2-1.5c-11.7,6.3-23.4,12.6-35.1,18.9c-29.9,16.1-59.7,32.2-89.6,48.2c-4.9,2.6-9.3,1.4-11.3-3.1
		c-1.5-3.4-0.1-7.3,3.5-9.6c10-6.6,20-13,30-19.6c74.2-48.5,148.5-97,222.7-145.6c6.6-4.3,13.3-5.9,20.6-2.6
		c7.4,3.3,11.8,9.3,12.3,17.3c0.5,8.5-3.4,15-10.8,19.2c-11.6,6.4-23.2,12.6-34.8,18.9c-18.4,10-36.8,19.9-55.1,29.8
		c-0.8,0.4-1.6,0.7-1.8,1.8c-1.7,8.6-5.2,16.6-8.1,24.8c-3.9,11.1-8.1,22-12.2,33.1c-0.1,0.3-0.2,0.7-0.3,1.1
		c-1.9,4.9-3.7,9.8-5.7,14.6c-5.1,12.7-10.1,25.3-15.4,37.9c-5.9,14-11.9,28-18,42c-7.9,18-16.2,35.8-24.7,53.5
		c-7.6,15.8-15.3,31.5-23.5,47c-6.4,12-12.9,24-19.5,35.9c-8,14.5-16.5,28.7-25.3,42.7c-5.9,9.5-11.9,18.9-18.2,28.2
		c-9.8,14.5-20.1,28.5-30.9,42.2c-8.4,10.6-17.2,20.9-26.4,31c-5.7,6.3-11.7,12.5-17.8,18.4c-12.3,11.8-25.2,23-39.4,32.4
		c-5.6,3.7-11.2,7.3-17,10.7c-0.5,0.3-0.9,0.3-1.4,0.4c-0.9,0-1.9,0-2.8,0C20.6,773.8,18.8,772,18.1,769.1z"/>
	<path fill="#FFFFFF" d="M841.9,405.8c0.3-3.3,0.7-9,1.4-14.7c1.4-11,11.6-17.8,22.8-15.5c9.6,2,15.9,12.8,13.2,22.8
		c-0.3,0.9-0.5,1.9-0.9,2.7c-2.4,5.2-4.8,10.3-7.4,15.4c-3.4,6.5-11,9.6-18,7.6C845.8,422.1,841.2,415.5,841.9,405.8z"/>
	<path fill="#FFFFFF" d="M594.1,554.6c0,2.7,0,5.4,0,8.1C593.6,560,593.6,557.3,594.1,554.6z"/>
	<path fill="#FFFFFF" d="M621.1,558.4c0,2.1,0.2,4.3-0.3,6.4C620.9,562.7,620.4,560.5,621.1,558.4z"/>
	<path fill="#FFFFFF" d="M642.7,608.2c1.9,0,3.9,0,5.8,0C646.6,608.8,644.7,608.8,642.7,608.2z"/>
	<path fill="#FFFFFF" d="M552.5,509.8c0.2-0.3,0.7-1,0.7,0c0.1,1.2,0.2,2.5-0.3,3.7C552.7,512.3,553.3,511,552.5,509.8z"/>
	<path fill="#FFFFFF" d="M552.8,516c0,1.6,0.1,3.2-0.3,4.8C552.6,519.2,552.1,517.6,552.8,516z"/>
	<path fill="#FFFFFF" d="M620.8,569.4c0.4,1.5,0.3,3,0.3,4.5C620.4,572.4,620.9,570.9,620.8,569.4z"/>
	<path fill="#FFFFFF" d="M594.5,549.2c0,1.4,0.1,2.7-0.3,4C594.3,551.9,593.8,550.5,594.5,549.2z"/>
	<path fill="#FFFFFF" d="M595.3,538.3c0,1.2,0.1,2.5-0.3,3.7C595.1,540.8,594.6,539.5,595.3,538.3z"/>
	<path fill="#FFFFFF" d="M601.9,571.2c1.2,0,2.3,0,3.5,0C604.2,571.8,603,571.7,601.9,571.2z"/>
	<path fill="#FFFFFF" d="M594.9,544.1c0,1.2,0.1,2.4-0.3,3.6C594.6,546.6,594.2,545.3,594.9,544.1z"/>
	<path fill="#FFFFFF" d="M542.8,572.3c0,1,0,2,0,3.1C542.2,574.3,542.2,573.3,542.8,572.3z"/>
	<path fill="#FFFFFF" d="M512,681.5c0-1,0-2,0-3.1C512.6,679.4,512.5,680.4,512,681.5z"/>
	<path fill="#FFFFFF" d="M768.5,500.2c0-0.4,0.4-0.9,0.5-0.8c0.5,0.5,0.2,1-0.1,1.5C768.8,500.7,769,500.3,768.5,500.2z"/>
	<path fill="#FFFFFF" d="M933.9,516.7c-0.1,0.4-0.3,0.8-1,0.8c0.2-0.5,0.5-1.1,0.7-1.6C933.7,516.2,933.8,516.5,933.9,516.7z"/>
	<path fill="#FFFFFF" d="M552.4,522.5c0,0.8,0.1,1.7-0.3,2.4C552.2,524.2,551.8,523.3,552.4,522.5z"/>
	<path fill="#FFFFFF" d="M621.2,574.9c0.3,0.8,0.3,1.6,0.3,2.4C620.9,576.6,621.2,575.7,621.2,574.9z"/>
	<path fill="#FFFFFF" d="M171.7,668.8c0,0.8,0,1.5,0,2.3C171.2,670.3,171.2,669.5,171.7,668.8z"/>
	<path fill="#FFFFFF" d="M503.1,687.7c0.8,0,1.5,0,2.3,0C504.6,688.2,503.9,688.2,503.1,687.7z"/>
	<path fill="#FFFFFF" d="M621.6,578.6c0.4,0.7,0.3,1.4,0.3,2.2C621.3,580.1,621.6,579.4,621.6,578.6z"/>
	<path fill="#FFFFFF" d="M622,581.4c0.3,0.7,0.3,1.4,0.3,2C621.7,582.9,622,582.1,622,581.4z"/>
	<path fill="#FFFFFF" d="M178.3,677.2c0.7,0,1.3,0,1.9,0C179.6,677.8,178.9,677.8,178.3,677.2z"/>
	<path fill="#FFFFFF" d="M969.8,478.2c-4.5-2.9-10.3-1.7-13.3,2.9c-2.5,3.7-4.9,7.4-7.3,11.1c-5.1,8.1-10.2,16.4-15.2,24.5
		c-0.9,0.1-0.4-0.5-0.3-0.8c0.2-1.2,0.3-2.4,0.7-3.6c1.9-7.5-1.9-15-9.2-18.1c-6.9-2.9-14.6-0.2-18.8,6.3c-2.2,3.4-2.8,7.2-3.6,11.1
		c-1.7,8.1-3.9,16.1-6.8,23.8c-4,10.7-8.3,21.3-14.6,30.9c-1.8,2.8-3.7,5.6-6.6,8.1c0-0.5,0-0.8,0-1c0-7.2,1.4-14.2,3.5-21
		c6.1-20.1,14.8-38.9,27.2-55.8c5.1-7,10.8-13.5,18-18.6c2.3-1.7,4.8-3.1,7.6-3.6c9.2-1.7,16-10.1,15.2-19.2
		c-0.8-9.8-8.8-17.4-18.2-17.5c-6-0.1-10.6,3-15.1,6.4c-8.4,6.4-14.9,14.4-20.5,23.3c-7.7,12.2-13.7,25.3-19,38.7
		c-1.1,2.8-1.8,5.7-3.6,8.3c-9.2,13-18.3,25.9-28.1,38.4c-3.2,4.1-6.4,8.3-10,12.8c0.1-0.9,0.2-1.4,0.2-1.8c1.2-6.9,3.1-13.6,5-20.4
		c2.7-9.8,6.1-19.3,9.7-28.8c2.7-7.2,5.7-14.3,8.9-21.3c1.9-4.1,3.5-8.3,2.5-13.2c-1.8-9-9.6-15.3-19.2-15.1
		c-8.4,0.2-16,6.8-17.2,15.2c-1.7,12.2-3.4,24.3-5.1,36.5c-0.2,1.4-0.3,2.8-1,4.1c-11.9,20.6-23.9,41.2-36.8,61.2
		c-0.2,0.3-0.2,0.8-0.8,0.8c0.1-2.5,0.6-5.1,0.9-7.6c3.6-24.5,8.8-48.8,14.9-72.8c8.1-31.7,17.4-63,26.7-94.3
		c5.6-18.8,12-37.4,18-56.1c3.2-10.1-1.4-19.5-11.3-23.1c-9.3-3.4-20.1,1.9-23,11.4c-2.4,7.7-4,15.7-6.2,23.5
		c-6.8,24.8-14.5,49.2-23,73.5c-3,8.4-6.1,16.7-9.3,24.8c-10.1-4-19.4-3-27.8,4.1c-4.6,3.9-8.1,8.7-11.2,13.9
		c-8.4,14.3-15,29.5-20.8,45c-0.9,2.4-1.7,4.8-3.2,7c-7.3,10.4-14.5,20.8-22.7,30.6c-6.6,7.9-13.8,15.2-22.1,21.4
		c-2.6,2-5.4,3.8-8.6,4.5c-3.7,0.9-4.1,0.7-5.2-2.9c-0.3-0.9-0.5-1.8-0.7-2.8c-1.5-10.5,0.5-20.6,3.4-30.6c0.2-0.7,0.5-0.8,1.2-0.6
		c1.9,0.5,3.7,1.4,5.7,1.5c5.6,0.3,10.4-1.9,14.9-4.9c5.6-3.7,10-8.7,13.7-14.2c9.9-14.3,16.4-30.1,20.6-47
		c1.9-7.6,2.8-15.3,1.2-23.1c-2-9.5-6.8-17-16.3-20.3c-9.3-3.3-17.9-0.9-25.7,4.5c-6.9,4.7-12,11.2-16.2,18.4
		c-8.2,13.9-13.9,28.9-17.5,44.6c-0.1,0.3-0.1,0.7-0.5,0.6c-1.2-6.3-2.5-9.8-4.7-12.6c-5.7-7.1-13.2-9.5-21.8-7.8
		c-6.7,1.3-12.3,5-17,10c-0.7,0.7-1.3,1.4-2,2.1c-0.6,0.7-1.2,1.3-1.9,1.9c2.9-6.9,4.9-13.9,6-21.1c1.3-8.8,0.6-17.1-6.1-24
		c-6.2-6.4-13.8-7.6-21.6-4.7c-7.7,2.9-12.9,8.9-17.6,15.2c-0.8,1.1-1.2,1.5-2.5,0.5c-10.8-8.3-25.4-3.5-29.2,9.6
		c-6.8,23.3-13.5,46.6-20.2,69.9c-1.2,4.1-2.4,8.1-3.6,12.5c-0.3-1-0.4-1.6-0.5-2.2c-9-39.3-17.9-78.6-27-117.9
		c-0.4-1.7,0-2.6,1.3-3.7c20-16.7,39.9-33.7,59.5-50.9c31.4-27.7,61.5-56.6,89.6-87.5c22.8-25,43.5-51.7,61.2-80.6
		c2.5-4.1,5.1-8.2,7.3-12.5c5.8-11.5-1.9-26.3-14.7-28.5c-0.3-0.1-0.8,0.2-1-0.4c-0.3,0-0.5,0-0.8,0c-1.3,0.3-2.6,0.3-3.9,0
		c-0.4,0-0.8,0-1.2,0c-0.7,0.7-1.8,0.6-2.6,0.8c-6.2,2-10.2,6.3-13.2,12c-10.1,19.2-21.8,37.4-34.6,54.9
		c-19.6,26.9-41.6,51.8-64.6,75.8c-28.7,29.9-58.9,58.1-89.5,86c-0.1,0.1-0.3,0.1-0.6,0.2c-0.2-0.7-0.3-1.3-0.5-1.9
		c-5.3-23.3-10.5-46.6-15.8-69.9c-4.2-18.5-8.3-37.1-12.7-55.6c-2.7-11.1-14.1-17.6-25.1-14.5c-10.8,3-17.1,14.4-14,25.3
		c8.6,29.7,17.3,59.4,26,89c4.9,16.9,9.9,33.9,14.9,50.8c0.2,0.5,0.6,1.2-0.2,1.7c-3.1,2.5-5.8,5.4-9,7.7c-1.5,1-2.6,2.4-3.9,3.5
		c-4.4,3.8-8.7,7.6-13,11.4c-4.3,3.7-8.6,7.5-12.9,11.3c-4.1,3.8-8.4,7.4-12.6,11.1c-4.3,3.7-8.5,7.4-12.8,11.2
		c-4.2,3.7-8.5,7.4-12.7,11.2c-4.5,4-9.1,8-13.6,12c-3.5,3.2-7.1,6.4-10.7,9.6c-3.9,3.4-7.7,6.8-11.4,10.2
		c-4.1,3.9-8.3,7.6-12.5,11.3c-3.9,3.5-7.8,7.1-11.7,10.5c-4.3,3.8-8.5,7.7-12.8,11.6c-3.2,2.9-6.4,5.9-9.6,8.9
		c-4.7,4.4-9.5,8.9-14.2,13.4c-4.2,4-8,8.3-12.4,12.2c-5.3,4.7-10.2,10-15.4,14.9c-11.8,11.3-23.1,23.1-34.6,34.9
		c-0.3,0.3-0.6,0.7-0.9,1c-2.9,3.1-5.7,6.2-8.5,9.2c-2.3,2.5-5.1,4.6-6.1,8.1c-0.2,0.8-0.2,1.5,0,2.3c0.4,3.3,3.3,5.9,6.6,6.2
		c0.7,0.2,1.3,0.2,1.9,0c2.3-0.5,4.1-2,5.7-3.6c6.6-6.6,13.2-13.2,20-19.5c10.5-9.9,21.1-19.7,31.7-29.4c5-4.6,10-9.1,15.2-13.6
		c8.6-7.6,17.3-15,25.9-22.5c6.5-5.6,13-11.3,19.6-16.9c8.4-7.1,16.9-14.1,25.3-21.1c7.9-6.6,15.8-13.2,23.7-19.8
		c7.4-6.1,14.9-12.1,22.3-18.1c7.9-6.4,15.9-12.8,23.8-19.3c7.2-5.9,14.4-11.8,21.6-17.7c5.1-4.2,10.3-8.4,15.4-12.6
		c0.7-0.5,1.2-1.4,1.7,0.5c2.1,8,4.6,15.9,6.9,23.8c1.8,6.1,3.5,12.2,5.3,18.2c2.2,7.4,4.5,14.7,6.7,22.1
		c3.4,11.8,6.8,23.6,10.2,35.4c2.6,9,5.2,17.9,7.9,26.8c2.5,8.8,5.1,17.5,7.7,26.3c3.4,11.4,6.7,22.8,10.1,34.3
		c1.7,5.7,3.3,11.3,5,17c1.2,4.1,2.4,8.1,3.5,12.2c1.1,4,2.9,7.4,7.6,7.9c0.8,0.2,1.5,0.2,2.3,0c3.3-0.9,5.4-3.1,6.6-6.2
		c0.3-1,0.3-2,0-3.1c-0.1-0.2-0.3-0.3-0.3-0.5c-3.5-15.7-7.1-31.4-10.6-47c-2.6-11.4-5.3-22.8-8-34.2c-0.5-2.2-0.3-4.2,0.8-6.2
		c2.3-4.1,4.4-8.3,6.6-12.4c7.1-12.8,15.7-24.5,24.5-36.1c5.1-6.6,10.5-13,16-19.3c3.7-4.4,7.6-8.6,11.5-12.9c0.4-0.2,0.6,0,0.6,0.4
		c0,1.1,0.2,2.2-0.2,3.3c0.2,0.8,0,1.7-0.1,2.5c-0.4,1.6,0.1,3.2-0.3,4.8c0,0.6,0,1.2-0.1,1.7c-0.3,0.8,0.1,1.7-0.3,2.4
		c0.3,0.7-0.4,1.2-0.4,2c-0.1,2.8-0.7,5.6-1.2,8.3c-0.7,3.6-1.1,7.3-1.8,10.8c-0.6,3.2-1.1,6.4-1.9,9.6c-1.3,5.5-2.7,11-4.1,16.6
		c-0.2,1-0.3,2,0,3.1c1.9,3.9,5.7,4.2,8.3,0.7c2.7-3.7,5.4-7.4,8.4-10.9c5.6-6.4,11.3-12.7,17.8-18.3c5.3-4.6,10.9-8.8,16.6-12.8
		c1.1-0.8,1.6-0.7,1.5,0.8c0,1.2-0.1,2.3-0.1,3.4c-0.4,1.2,0.1,2.5-0.3,3.7c0,0.7,0,1.4-0.1,2.1c-0.4,1.2,0.1,2.4-0.3,3.6
		c0,0.5,0,0.9-0.1,1.4c-0.4,1.3,0.1,2.7-0.3,4c0.2,0.5,0.1,0.9-0.1,1.4c-0.2,2.7-0.2,5.4,0,8.1c0.2,0.5,0.4,0.9,0.5,1.4
		c0.9,3.9,3.7,5.9,7.3,7.1c1.2,0.2,2.3,0.3,3.5,0c3.5-0.9,6.2-3.1,8.5-5.7c2.1-2.4,4.1-5.1,6.1-7.5c0.3-0.3,0.3-1.2,1-1
		c0.7,0.3,0.2,1,0.2,1.5c-0.5,2.1,0.2,4.3-0.3,6.4c0.2,1.5,0.2,3,0,4.6c0.5,1.5-0.1,3,0.3,4.5c0,0.3,0,0.7,0.1,1
		c0.4,0.8,0,1.7,0.3,2.4c0,0.4,0,0.9,0.1,1.3c0.3,0.7,0,1.5,0.3,2.2c0,0.2,0,0.4,0.1,0.7c0.3,0.7,0,1.4,0.3,2c0,0.6-0.1,1.3,0.1,1.9
		c1.9,6.3,3.9,12.4,8.9,17.2c3.3,3.2,7,5.1,11.5,5.6c1.9,0.3,3.9,0.3,5.8,0c5.5-0.7,10.5-2.9,15.1-5.8c8.7-5.5,16.1-12.6,22.9-20.3
		c2.8-3.1,5.4-6.4,8.1-9.6c0.5,0.4,0.5,1,0.6,1.5c1.5,6.1,6.9,9.9,13.1,8.9c3.5-0.6,6.7-2.2,9.6-4.1c4.9-3.3,8.6-7.7,12.2-12.2
		c5.1-6.4,9.5-13.4,13.7-20.4c8.9-14.9,17.4-30.1,24.6-45.9c0.9-0.2,0.5,0.4,0.4,0.8c-3,17.5-5.7,35-7.6,52.6
		c-1.5,14-2.6,28-1.8,42.1c0.3,5.1,0.7,10.1,2.3,15c1,3.2,3.4,5.2,6.6,5.8c3.2,0.6,5.8-0.5,7.8-3.1c2.7-3.6,5.4-7.1,8.1-10.8
		c9.3-12.9,17.5-26.6,25.6-40.3c0.3-0.5,0.3-1.3,0.7-1.4c0,3.8,0,7.7,0,11.6c0.1,5.8,0.6,11.6,3.7,16.7c2.9,4.8,10.2,7.8,15.9,4.1
		c2.8-1.9,4.9-4.4,6.8-7c6.8-9.1,13.4-18.4,20.1-27.5c0.4-0.6,0.7-1.4,1.6-1.6c-0.1,0.8-0.2,1.4-0.3,2c-0.7,7-1.5,14,0.2,21.1
		c1.9,7.9,8.8,14.8,18.9,11.3c5.2-1.8,9-5.3,12.5-9.3c5.4-6.2,10.1-13,14.5-19.9c0.3-0.5,0.4-1.1,1.2-1.3c0.3,2.9,1.6,5.6,2.8,8.1
		c2,4.2,5.3,6.7,10,6.7c4.6,0,7.7-2.4,9.6-6.5c1.7-3.7,3.5-7.3,5.4-10.9c12.2-22.9,25.7-45.1,39.2-67.2
		C975.6,486.8,974.3,481.2,969.8,478.2z M656,524.2c3.4-8.6,7.5-16.9,11.8-25c0.2-0.3,0.3-0.5,0.8-1.2c-1.8,13.5-2.5,26.8-13.3,36.5
		C653.8,530.8,654.7,527.6,656,524.2z"/>
	<path fill="#FFFFFF" d="M752.3,492.4c-0.3-0.1-0.5-0.3-0.8-0.4c1.4-1,1.4-1,2.7-1.4C754.4,492.2,752.9,491.8,752.3,492.4z"/>
</g>
</svg>
